HIERARCHY
ROOT Hips
{
    OFFSET 0.000000 0.000000 0.000000
    CHANNELS 6 Xposition Yposition Zposition Zrotation Xrotation Yrotation
    JOINT Spine
    {
        OFFSET -0.000000 7.750029 0.000000
        CHANNELS 3 Zrotation Xrotation Yrotation
        JOINT Spine1
        {
            OFFSET -0.000000 19.767460 0.000000
            CHANNELS 3 Zrotation Xrotation Yrotation
            JOINT Neck
            {
                OFFSET -0.000000 19.686279 1.789662
                CHANNELS 3 Zrotation Xrotation Yrotation
                JOINT Head
                {
                    OFFSET -0.000000 13.231757 -1.890251
                    CHANNELS 3 Zrotation Xrotation Yrotation
                    End Site
                    {
                        OFFSET -0.000000 23.628138 0.000000
                    }
                }
            }
            JOINT LeftShoulder
            {
                OFFSET 3.736819 16.910755 -0.280982
                CHANNELS 3 Zrotation Xrotation Yrotation
                JOINT LeftArm
                {
                    OFFSET 13.626117 0.000000 0.000000
                    CHANNELS 3 Zrotation Xrotation Yrotation
                    JOINT LeftForeArm
                    {
                        OFFSET 31.364786 0.000000 0.000000
                        CHANNELS 3 Zrotation Xrotation Yrotation
                        JOINT LeftHand
                        {
                            OFFSET 23.389509 0.000000 0.000000
                            CHANNELS 3 Zrotation Xrotation Yrotation
                            End Site
                            {
                                OFFSET 14.176883 0.000000 0.000000
                            }
                        }
                    }
                }
            }
            JOINT RightShoulder
            {
                OFFSET -3.821718 16.910755 -0.280982
                CHANNELS 3 Zrotation Xrotation Yrotation
                JOINT RightArm
                {
                    OFFSET -13.626117 0.000000 0.000000
                    CHANNELS 3 Zrotation Xrotation Yrotation
                    JOINT RightForeArm
                    {
                        OFFSET -31.364786 0.000000 0.000000
                        CHANNELS 3 Zrotation Xrotation Yrotation
                        JOINT RightHand
                        {
                            OFFSET -23.389509 0.000000 0.000000
                            CHANNELS 3 Zrotation Xrotation Yrotation
                            End Site
                            {
                                OFFSET -14.176883 0.000000 0.000000
                            }
                        }
                    }
                }
            }
        }
    }
    JOINT LeftUpLeg
    {
        OFFSET 9.451255 0.000000 0.000000
        CHANNELS 3 Zrotation Xrotation Yrotation
        JOINT LeftLeg
        {
            OFFSET -0.000000 -41.898624 0.000000
            CHANNELS 3 Zrotation Xrotation Yrotation
            JOINT LeftFoot
            {
                OFFSET -0.000000 -38.481331 0.000000
                CHANNELS 3 Zrotation Xrotation Yrotation
                JOINT LeftToeBase
                {
                    OFFSET -0.000000 -6.143315 14.176883
                    CHANNELS 3 Zrotation Xrotation Yrotation
                    End Site
                    {
                        OFFSET -0.000000 0.000000 3.780502
                    }
                }
            }
        }
    }
    JOINT RightUpLeg
    {
        OFFSET -9.451255 0.000000 0.000000
        CHANNELS 3 Zrotation Xrotation Yrotation
        JOINT RightLeg
        {
            OFFSET -0.000000 -41.898624 0.000000
            CHANNELS 3 Zrotation Xrotation Yrotation
            JOINT RightFoot
            {
                OFFSET -0.000000 -38.481331 0.000000
                CHANNELS 3 Zrotation Xrotation Yrotation
                JOINT RightToeBase
                {
                    OFFSET -0.000000 -6.143315 14.176883
                    CHANNELS 3 Zrotation Xrotation Yrotation
                    End Site
                    {
                        OFFSET -0.000000 0.000000 3.780502
                    }
                }
            }
        }
    }
}
MOTION
Frames:    6
Frame Time:    0.010000
-17.012007    72.185806    6.180809    -5.693909    30.406418    100.703796    4.527447    7.887168    -0.179606    10.026016    18.922588    -1.541965    5.026368    50.407791    -4.485676    -7.592799    8.052388    -3.385913    17.143959    -9.139875    -9.072351    -24.211298    -2.575232    0.790860    65.581871    -41.572151    -71.288857    -16.828468    7.634795    25.460670    -6.504718    -7.539091    16.279278    8.545465    29.886227    87.117798    -24.270496    -43.511440    96.881409    -4.791639    -19.653114    -0.314816    -4.884284    -31.538910    6.765173    -25.370886    60.084820    16.978455    -4.281946    -23.864822    17.712736    0.000000    0.000000    0.000000    -37.297684    -43.915127    14.753337    72.070465    82.911407    -50.385590    -20.703253    -37.718056    -44.315945    0.000000    0.000000    0.000000    
-17.057108    72.205032    6.063736    -5.452249    30.375261    100.506516    5.020616    7.852610    -0.656063    9.274482    18.907228    -1.858765    1.410675    51.754112    -2.216377    -6.005434    7.194861    -2.252594    16.537670    -8.591517    -8.614236    -23.501551    -2.429758    0.821374    65.408119    -41.043434    -70.750320    -16.873213    7.482178    25.225534    -6.708236    -6.710012    17.704412    9.298078    29.264170    86.721214    -24.005848    -42.792747    96.597084    -5.017279    -19.194540    0.207535    -5.158592    -31.442673    7.039244    -24.205233    60.214031    17.876926    -4.972742    -23.753101    16.220982    0.000000    0.000000    0.000000    -37.293217    -43.786678    14.783244    70.940536    82.891655    -49.162354    -20.684275    -37.653709    -44.276398    0.000000    0.000000    0.000000    
-17.101898    72.234062    5.941770    -5.217115    30.310190    100.271980    5.589540    7.809929    -1.133501    8.557996    18.912144    -2.179568    -1.101656    52.948925    -0.678060    -5.610105    6.465275    -1.633638    15.812509    -8.180744    -8.245145    -22.815380    -2.353198    1.111253    65.574387    -40.262321    -69.994553    -17.336687    7.737199    24.967506    -7.097772    -6.208220    19.330603    10.567823    28.975952    85.989197    -24.221294    -42.549263    96.621460    -4.094710    -18.589952    -0.504861    -5.327698    -31.175501    7.588326    -22.768854    60.306217    16.915682    -3.571261    -24.194054    15.802791    0.000000    0.000000    0.000000    -37.270706    -43.693108    14.796544    69.826340    82.856964    -47.932747    -20.682457    -37.530174    -44.208466    0.000000    0.000000    0.000000    
-17.148607    72.266151    5.825929    -4.995996    30.244696    100.027397    4.987018    7.933719    -0.487007    9.024592    19.149759    -1.666503    2.392563    52.403095    -2.841720    -6.885973    6.823241    -2.601383    16.505415    -8.656735    -8.949129    -23.798023    -2.359593    1.146422    64.704132    -40.908154    -70.712173    -16.951792    6.780812    24.827538    -6.629881    -6.727160    17.722660    9.535504    29.700165    86.484879    -22.993673    -42.051659    97.566284    -7.133584    -18.928976    -0.747299    -5.470316    -30.796122    8.174364    -21.268160    60.275158    14.584763    -2.586211    -24.851303    16.638731    0.000000    0.000000    0.000000    -37.251141    -43.609913    14.764791    68.418800    82.852791    -46.457092    -20.488621    -37.555161    -43.999329    0.000000    0.000000    0.000000    
-17.210604    72.311996    5.721188    -4.808607    30.144642    99.769218    5.050961    8.012346    -0.472699    8.773386    19.125637    -1.599635    1.890651    51.694290    -2.300858    -6.816755    8.257616    -2.160540    16.538347    -8.166864    -8.693037    -23.749680    -2.860015    0.758188    64.124283    -40.627998    -71.022102    -17.871187    6.552921    25.062414    -6.595129    -6.562240    17.902739    9.481879    29.678728    86.512520    -23.488480    -42.331089    97.187416    -6.543392    -18.880835    -0.751171    -5.562006    -30.466017    8.557620    -20.084002    60.077957    13.045486    -2.459829    -25.472754    17.114954    0.000000    0.000000    0.000000    -37.224056    -43.582504    14.742863    67.084106    82.802269    -44.993183    -20.350857    -37.524040    -43.829247    0.000000    0.000000    0.000000    
-17.279947    72.365150    5.622251    -4.675645    30.019114    99.563042    5.088831    7.774316    -0.527070    8.824584    19.767923    -1.721953    1.654764    51.227966    -2.218157    -7.328849    8.482132    -2.196549    16.410044    -8.487508    -8.288399    -23.841133    -2.672665    0.796182    63.969898    -40.296547    -70.679771    -17.893171    6.425010    24.862040    -7.249440    -6.578275    17.616146    9.696726    29.359636    87.176903    -22.795956    -41.424641    97.293068    -7.735243    -18.522432    -0.255784    -5.607421    -30.256662    8.627072    -19.580084    59.963707    10.972594    -1.738701    -26.118153    18.817799    0.000000    0.000000    0.000000    -37.204746    -43.569218    14.514838    64.902611    82.852867    -42.827564    -20.118544    -37.480865    -43.545406    0.000000    0.000000    0.000000    
